<?xml version="1.0" encoding="utf-8"?>
<!-- Generator: Adobe Illustrator 22.0.1, SVG Export Plug-In . SVG Version: 6.00 Build 0)  -->
<svg width="262.5" height="46.6" version="1.1" id="Layer_1" xmlns="http://www.w3.org/2000/svg" xmlns:xlink="http://www.w3.org/1999/xlink" x="0px" y="0px"
	 viewBox="0 0 262.5 46.6" xml:space="preserve">
<style type="text/css">
	.st0{fill:#005F3F;}
</style>
<g>
	<g>
		<path class="st0" d="M66.1,14.5c0-4.7,2.5-7.1,6.4-7.1s6.4,2.5,6.4,7.1c0,4.7-2.5,7.3-6.4,7.3S66.1,19.2,66.1,14.5 M69.2,14.5
			c0,3.3,1.1,4.8,3.3,4.8c2.2,0,3.3-1.6,3.3-4.8c0-3.1-1.1-4.6-3.3-4.6C70.3,9.9,69.2,11.4,69.2,14.5"/>
		<path class="st0" d="M89.1,18.9c-0.6,2-1.9,2.9-4.2,2.9c-2.5,0-4.2-1.3-4.2-4.5V7.7h3.1v8.9c0,1.9,0.7,2.8,2.3,2.8
			c1.5,0,2.9-1.2,2.9-3.9V7.7h3.1v13.7h-2.7L89.1,18.9z"/>
		<path class="st0" d="M96.6,17.4c0.2,1.5,1.3,2.2,2.9,2.2c1.4,0,2.4-0.5,2.4-1.6c0-1-0.5-1.5-2-1.9l-2-0.5
			c-2.5-0.6-3.4-1.9-3.4-3.9c0-3.2,2.6-4.2,5.3-4.2c3,0,4.9,1.1,5.1,3.8l-3,0.4c-0.1-1.3-0.9-1.8-2.3-1.8c-1.3,0-2.1,0.6-2.1,1.6
			c0,0.9,0.4,1.4,1.7,1.7l1.9,0.4c2.6,0.6,3.9,1.8,3.9,4.2c0,3-2.4,4.1-5.5,4.1c-3.2,0-5-1-5.5-3.5L96.6,17.4z"/>
		<path class="st0" d="M115.5,17.2l2.7,0.8c-0.6,2.8-3,3.7-5.6,3.7c-3.7,0-6.3-2.6-6.3-7.1c0-4.6,2.5-7.3,6.4-7.3
			c3.7,0,5.6,2.5,5.6,5.9c0,0.7-0.1,1.4-0.2,1.8h-8.7c0.1,2.5,1.3,4.2,3.4,4.2C114.1,19.3,115.1,18.8,115.5,17.2 M115.3,13.1
			c0-0.2,0-0.4,0-0.5c0-1.6-1-2.9-2.7-2.9c-1.8,0-3,1.3-3.2,3.4C109.4,13.1,115.3,13.1,115.3,13.1z"/>
		<path class="st0" d="M123.7,14.5c0-4.7,2.5-7.1,6.4-7.1c3.9,0,6.4,2.5,6.4,7.1c0,4.7-2.5,7.3-6.4,7.3
			C126.2,21.8,123.7,19.2,123.7,14.5 M126.7,14.5c0,3.3,1.1,4.8,3.3,4.8c2.2,0,3.3-1.6,3.3-4.8c0-3.1-1.1-4.6-3.3-4.6
			C127.8,9.9,126.7,11.4,126.7,14.5"/>
		<path class="st0" d="M142.3,6.5c0-1.9,0.8-2.5,2.1-2.5c0.9,0,1.5,0.2,2.3,0.6V1.8c-0.7-0.3-1.5-0.4-2.5-0.4c-2.6,0-5,1.2-5,5v1.4
			h-2v2.4h2v11.3h3.1V10.1h3.5V7.7h-3.5V6.5z"/>
		<path class="st0" d="M165.1,18c-1.6,2.5-3.6,3.7-7.2,3.7c-4.6,0-7.8-3.3-7.8-9.1c0-5.8,3.3-9.1,8.3-9.1c3.3,0,5.6,1.5,6.8,4.3
			l-3,1.5c-0.7-2-2-3-3.9-3c-3.1,0-4.8,2.4-4.8,6.4c0,3.9,1.6,6.2,4.8,6.2c2,0,3.3-0.8,4.4-2.6L165.1,18z"/>
		<path class="st0" d="M166.1,14.5c0-4.7,2.5-7.1,6.4-7.1c3.9,0,6.4,2.5,6.4,7.1c0,4.7-2.5,7.3-6.4,7.3
			C168.7,21.8,166.1,19.1,166.1,14.5 M169.2,14.5c0,3.3,1.1,4.8,3.3,4.8c2.2,0,3.3-1.6,3.3-4.8c0-3.1-1.1-4.6-3.3-4.6
			C170.3,9.8,169.2,11.4,169.2,14.5"/>
		<path class="st0" d="M196.1,7.4c2.3,0,4,1.2,4,4.2v9.9H197v-8.8c0-1.6-0.6-2.6-2.1-2.6c-1.5,0-2.9,1-2.9,3.6v7.8h-3.1v-8.8
			c0-1.6-0.6-2.6-2.1-2.6c-1.5,0-2.8,1-2.8,3.7v7.7h-3.1V7.7h2.5l0.4,2.6c0.7-2.1,2.3-3,4.2-3s3.4,0.8,3.7,3
			C192.4,8.2,194.1,7.4,196.1,7.4"/>
		<path class="st0" d="M217.8,7.4c2.3,0,4,1.2,4,4.2v9.9h-3.1v-8.8c0-1.6-0.6-2.6-2.1-2.6c-1.5,0-2.9,1-2.9,3.6v7.8h-3.1v-8.8
			c0-1.6-0.6-2.6-2.1-2.6c-1.5,0-2.8,1-2.8,3.7v7.7h-3.1V7.7h2.5l0.4,2.6c0.7-2.1,2.3-3,4.2-3s3.4,0.8,3.7,3
			C214.2,8.2,215.9,7.4,217.8,7.4"/>
		<path class="st0" d="M223.7,14.5c0-4.7,2.5-7.1,6.4-7.1c3.9,0,6.4,2.5,6.4,7.1c0,4.7-2.5,7.3-6.4,7.3
			C226.2,21.8,223.7,19.1,223.7,14.5 M226.7,14.5c0,3.3,1.1,4.8,3.3,4.8c2.2,0,3.3-1.6,3.3-4.8c0-3.1-1.1-4.6-3.3-4.6
			C227.9,9.8,226.7,11.4,226.7,14.5"/>
		<path class="st0" d="M241.3,10.3c0.7-2,2.3-3,4.4-3c2.2,0,4.1,1.2,4.1,4.3v9.8h-3.1v-8.7c0-1.6-0.7-2.7-2.2-2.7
			c-1.5,0-3,0.8-3,3.7v7.8h-3.1V7.7h2.5L241.3,10.3z"/>
		<path class="st0" d="M254.2,17.4c0.2,1.5,1.3,2.2,2.9,2.2c1.4,0,2.4-0.5,2.4-1.6c0-1-0.5-1.5-2-1.9l-2-0.5
			c-2.5-0.6-3.4-1.9-3.4-3.9c0-3.2,2.6-4.2,5.3-4.2c3,0,4.9,1.1,5.1,3.8l-3,0.4c-0.1-1.3-0.9-1.8-2.3-1.8c-1.3,0-2.1,0.6-2.1,1.6
			c0,0.9,0.4,1.4,1.7,1.7l1.9,0.4c2.6,0.6,3.9,1.8,3.9,4.2c0,3-2.4,4.1-5.5,4.1c-3.2,0-5-1-5.5-3.5L254.2,17.4z"/>
		<path class="st0" d="M63.4,43.1c-1.6,2.4-3.5,3.5-6.8,3.5c-4.5,0-7.5-3.2-7.5-9c0-5.8,3.3-9.2,8-9.2c3,0,5.2,1.3,6.4,4.1l-2.1,1
			c-0.8-2.2-2.5-3.2-4.4-3.2c-3.4,0-5.4,2.8-5.4,7.2c0,4.4,1.7,7,5.2,7c2.3,0,3.8-0.8,5.1-2.8L63.4,43.1z"/>
		<path class="st0" d="M64.8,39.3c0-4.7,2.4-7.1,6.1-7.1c3.7,0,6.1,2.4,6.1,7.1c0,4.7-2.4,7.3-6.1,7.3C67.2,46.6,64.8,44,64.8,39.3
			 M67,39.3c0,3.6,1.3,5.5,3.9,5.5c2.6,0,3.9-1.9,3.9-5.5c0-3.6-1.3-5.2-3.9-5.2C68.3,34.1,67,35.8,67,39.3"/>
		<path class="st0" d="M94,32.3c2.3,0,4.1,1.2,4.1,4.1v10h-2.3V37c0-1.7-0.8-2.8-2.4-2.8c-1.7,0-3.4,1.2-3.4,4.1v8h-2.3V37
			c0-1.7-0.8-2.8-2.4-2.8c-1.7,0-3.4,1.2-3.4,4.1v8h-2.3V32.6h1.7l0.3,2.6c0.7-2.1,2.5-3,4.3-3c2,0,3.4,0.9,3.8,3
			C90.4,33.1,92.2,32.3,94,32.3"/>
		<path class="st0" d="M115.7,32.3c2.3,0,4.1,1.2,4.1,4.1v10h-2.3V37c0-1.7-0.8-2.8-2.4-2.8c-1.7,0-3.4,1.2-3.4,4.1v8h-2.3V37
			c0-1.7-0.8-2.8-2.4-2.8c-1.7,0-3.4,1.2-3.4,4.1v8h-2.3V32.6h1.7l0.3,2.6c0.7-2.1,2.5-3,4.3-3c2,0,3.4,0.9,3.8,3
			C112.1,33.1,113.9,32.3,115.7,32.3"/>
		<path class="st0" d="M124.2,26.5c0.9,0,1.6,0.7,1.6,1.6c0,0.9-0.7,1.6-1.6,1.6c-0.9,0-1.6-0.7-1.6-1.6
			C122.7,27.2,123.4,26.5,124.2,26.5 M125.4,46.3h-2.3V32.6h2.3V46.3z"/>
		<path class="st0" d="M136,45.9c-0.8,0.5-1.9,0.8-3,0.8c-2.4,0-3.8-1.3-3.8-3.7v-8.6h-2v-1.8h2v-2.9l2.3-0.3v3.2h4.1v1.8h-4.1v8.2
			c0,1.5,0.7,2.2,1.8,2.2c0.9,0,1.5-0.2,2.3-0.7L136,45.9z"/>
		<path class="st0" d="M145.6,45.9c-0.8,0.5-1.9,0.8-3,0.8c-2.4,0-3.8-1.3-3.8-3.7v-8.6h-2v-1.8h2v-2.9l2.3-0.3v3.2h4.1v1.8h-4.1
			v8.2c0,1.5,0.7,2.2,1.8,2.2c0.9,0,1.5-0.2,2.3-0.7L145.6,45.9z"/>
		<path class="st0" d="M155.8,42.5l2,0.4c-0.5,2.8-2.8,3.7-5.4,3.7c-3.6,0-5.9-2.5-5.9-7.1c0-4.6,2.4-7.3,6.1-7.3
			c3.4,0,5.3,2.4,5.3,5.8c0,0.8-0.1,1.5-0.3,1.9h-9c0.1,2.9,1.5,4.9,3.9,4.9C154.2,44.9,155.3,44.2,155.8,42.5 M155.7,38.1
			c0-0.2,0-0.4,0-0.6c0-1.9-1.3-3.4-3.3-3.4c-2.1,0-3.4,1.4-3.7,4.1C148.7,38.1,155.7,38.1,155.7,38.1z"/>
		<path class="st0" d="M169.2,42.5l2,0.4c-0.5,2.8-2.8,3.7-5.4,3.7c-3.6,0-5.9-2.5-5.9-7.1c0-4.6,2.4-7.3,6.1-7.3
			c3.4,0,5.3,2.4,5.3,5.8c0,0.8-0.1,1.5-0.3,1.9h-9c0.1,2.9,1.5,4.9,3.9,4.9C167.6,44.9,168.7,44.2,169.2,42.5 M169,38.1
			c0-0.2,0-0.4,0-0.6c0-1.9-1.3-3.4-3.3-3.4c-2.1,0-3.4,1.4-3.7,4.1C162.1,38.1,169,38.1,169,38.1z"/>
		<path class="st0" d="M175,42.7c0.2,1.6,1.3,2.3,3.1,2.3c1.7,0,3-0.7,3-2.1c0-1.2-0.5-1.9-2.3-2.4l-2-0.5c-2.5-0.6-3.4-1.9-3.4-3.8
			c0-3,2.5-4,5-4c2.8,0,4.5,1,4.8,3.6l-2.2,0.2c-0.1-1.5-1-2.2-2.7-2.2s-2.7,0.8-2.7,2.1c0,1.1,0.4,1.8,2,2.1l1.9,0.5
			c2.3,0.6,3.7,1.6,3.7,4c0,2.9-2.3,3.9-5.2,3.9c-3,0-4.7-0.9-5.1-3.4L175,42.7z"/>
		<polygon class="st0" points="49.6,21.5 49.6,4 52.8,4 52.8,11.3 60.6,11.3 60.6,4 63.8,4 63.8,21.5 60.6,21.5 60.6,14 52.8,14
			52.8,21.5 		"/>
	</g>
	<path class="st0" d="M35.8,2.8l-0.5,0.2v0c0.5,1,0.7,2.2,0.4,3.5c-0.6-0.4-0.9-1-1.1-1.8l-0.5,0.2l0,0c-0.2,0.7-0.4,1.4-0.7,2.1
		c-0.3,0.7-0.7,1.3-1.1,1.9l0,0l0.1,0.5c0.5-0.2,1-0.4,1.6-0.4c0.2,0,0.4,0,0.6,0c-0.5,1.1-1.6,1.9-2.9,1.9c-1.2,0-2.3-0.7-2.8-1.7
		c0.4-0.2,0.7-0.5,0.8-0.9c0.1-0.6-0.3-0.9-0.1-1.5c0.1-0.6,0.7-1,1.3-0.9c0.5,0.1,0.8,0.5,0.9,0.9C32,7,32.2,6.6,32.3,6.2
		c0.2-0.8-0.3-1.5-1.1-1.7c-0.5-0.1-1,0.1-1.3,0.4c0.2-0.3,0.4-0.6,0.4-1c0.2-0.9,0-1.8-0.6-2.5c-0.8,0.4-1.4,1.1-1.6,2.1
		c-0.1,0.4-0.1,0.7,0,1.1c-0.2-0.4-0.5-0.8-1-0.9c-0.8-0.2-1.5,0.3-1.7,1.1c-0.1,0.4,0,0.8,0.2,1.1c0.2-0.4,0.7-0.6,1.2-0.5
		c0.6,0.1,1,0.7,0.9,1.3C27.5,7.3,27,7.4,26.9,8c-0.1,0.4,0,0.7,0.2,1c0,0,0,0,0.1,0.1c-0.6,0.5-1.4,0.8-2.3,0.8
		c-2,0-3.7-1.7-3.7-3.7V5.9c1.2,0.2,2.2,0.8,3,1.6l0.4-0.4V2.7l-0.4-0.4c-0.8,0.8-1.8,1.4-2.9,1.6v0c0-1.6,1.1-3,2.6-3.3l-0.4-0.4
		C22.3,0,21.2,0,20,0s-2.2,0-3.3,0.1l-0.4,0.4c1.5,0.4,2.6,1.7,2.6,3.3v0c-1.2-0.2-2.2-0.8-2.9-1.6l-0.4,0.4v4.4l0.4,0.4
		c0.8-0.8,1.8-1.4,3-1.6v0.3c0,2-1.7,3.7-3.7,3.7c-0.8,0-1.6-0.3-2.3-0.8C13,9,13,9,13,9c0.2-0.3,0.2-0.6,0.2-1
		c-0.1-0.6-0.6-0.7-0.7-1.3c-0.1-0.6,0.2-1.2,0.9-1.3c0.5-0.1,0.9,0.1,1.2,0.5c0.2-0.3,0.3-0.7,0.2-1.1C14.5,4,13.8,3.5,13,3.6
		c-0.5,0.1-0.9,0.5-1,0.9c0.1-0.4,0-0.7,0-1.1c-0.2-0.9-0.8-1.7-1.6-2.1C9.8,2.1,9.5,3,9.7,3.9c0.1,0.4,0.2,0.7,0.4,1
		C9.8,4.6,9.3,4.4,8.9,4.5C8.1,4.7,7.6,5.5,7.8,6.2C7.8,6.6,8.1,7,8.4,7.2c0.1-0.4,0.4-0.8,0.9-0.9c0.6-0.1,1.2,0.2,1.3,0.9
		c0.1,0.6-0.3,0.9-0.1,1.5c0.1,0.4,0.4,0.8,0.8,0.9h0c-0.5,1-1.6,1.7-2.8,1.7c-1.3,0-2.4-0.8-2.9-1.9c0.2,0,0.4,0,0.6,0
		c0.6,0,1.1,0.1,1.6,0.4l0.1-0.5l0,0C7.4,8.5,7,7.9,6.7,7.2C6.4,6.5,6.2,5.8,6,5.1l0,0L5.5,4.9C5.3,5.6,4.9,6.2,4.4,6.6
		C4,5.3,4.2,4.1,4.7,3.1v0L4.2,2.8C3.4,3.1,2.3,3.6,1.5,3.9l4.7,10.6c4.2-1.9,8.9-2.9,13.8-2.9s9.6,1,13.8,2.9l4.7-10.6
		C37.8,3.6,36.7,3.1,35.8,2.8 M38,25.5V27c1.2,0.3,2.1,1.4,2.1,2.7c0,1.3-0.8,2.4-2.1,2.7v1.5c1.2,0.3,2.1,1.4,2.1,2.7
		c0,1.3-0.8,2.4-2.1,2.7v1.5c1.2,0.3,2.1,1.4,2.1,2.7c0,1.6-1.2,2.8-2.8,2.8c-1.6,0-2.8-1.2-2.8-2.8c0-1.3,0.8-2.4,2.1-2.7v-1.5
		c-1.2-0.3-2.1-1.4-2.1-2.7c0-1.3,0.8-2.4,2.1-2.7v-1.5c-1.2-0.3-2.1-1.4-2.1-2.7c0-1.3,0.8-2.4,2.1-2.7v-1.5
		c-1.2-0.3-2.1-1.4-2.1-2.7c0-1.3,0.8-2.4,2.1-2.7v-1.5c-1-0.2-1.8-1-2-2h-1.5v29.7h-0.3c-0.7-2.1-1.8-4.1-3.1-5.9v-0.4h1.4v-4.1
		h-3.5v4.1h0.7v0.4c-0.9,1.8-1.6,3.8-1.9,5.8h-0.3c-0.4-2.1-1-4.1-1.9-5.8v-0.4h0.7v-4.1h-3.5v4.1h0.7v0.4c-0.9,1.8-1.6,3.8-1.9,5.8
		h-0.3c-0.4-2.1-1-4.1-1.9-5.8v-0.4h0.7v-4.1h-3.5v4.1h0.7v0.4c-0.9,1.8-1.6,3.8-1.9,5.8h-0.3c-0.4-2.1-1-4.1-1.9-5.8v-0.4h0.7v-4.1
		H9v4.1h1.4v0.4c-1.4,1.7-2.4,3.7-3.1,5.9H6.9V16.6H5.4c-0.2,1-1,1.8-2,2v1.5c1.2,0.3,2.1,1.4,2.1,2.7s-0.8,2.4-2.1,2.7V27
		c1.2,0.3,2.1,1.4,2.1,2.7c0,1.3-0.8,2.4-2.1,2.7v1.5c1.2,0.3,2.1,1.4,2.1,2.7c0,1.3-0.8,2.4-2.1,2.7v1.5c1.2,0.3,2.1,1.4,2.1,2.7
		c0,1.6-1.2,2.8-2.8,2.8c-1.6,0-2.8-1.2-2.8-2.8c0-1.3,0.8-2.4,2.1-2.7v-1.5C0.8,39,0,38,0,36.6c0-1.3,0.8-2.4,2.1-2.7v-1.5
		C0.8,32.1,0,31.1,0,29.7c0-1.3,0.8-2.4,2.1-2.7v-1.5C0.8,25.2,0,24.1,0,22.8c0-1.3,0.8-2.4,2.1-2.7v-1.5C0.8,18.3,0,17.2,0,15.9
		c0-1.6,1.1-2.8,2.8-2.8c1.4,0,2.4,0.9,2.7,2.1h29.2c0.3-1.2,1.3-2.1,2.7-2.1c1.6,0,2.8,1.2,2.8,2.8c0,1.3-0.8,2.4-2.1,2.7v1.5
		c1.2,0.3,2.1,1.4,2.1,2.7S39.2,25.2,38,25.5 M3.4,42.3c-0.1,0.3-0.3,0.5-0.7,0.5s-0.6-0.2-0.7-0.5c-0.4,0.2-0.7,0.7-0.7,1.2
		c0,0.8,0.6,1.4,1.4,1.4c0.8,0,1.4-0.6,1.4-1.4C4.1,43,3.9,42.5,3.4,42.3 M3.4,35.4c-0.1,0.3-0.3,0.5-0.7,0.5s-0.6-0.2-0.7-0.5
		c-0.4,0.2-0.7,0.7-0.7,1.2s0.3,1,0.7,1.2c0.1-0.3,0.3-0.5,0.7-0.5s0.6,0.2,0.7,0.5c0.4-0.2,0.7-0.7,0.7-1.2S3.9,35.6,3.4,35.4
		 M3.4,28.5C3.4,28.8,3.1,29,2.8,29s-0.6-0.2-0.7-0.5c-0.4,0.2-0.7,0.7-0.7,1.2c0,0.6,0.3,1,0.7,1.2c0.1-0.3,0.3-0.5,0.7-0.5
		s0.6,0.2,0.7,0.5c0.4-0.2,0.7-0.7,0.7-1.2C4.1,29.1,3.9,28.7,3.4,28.5 M4.1,15.9c0-0.8-0.6-1.4-1.4-1.4c-0.8,0-1.4,0.6-1.4,1.4
		c0,0.6,0.3,1,0.7,1.2c0.1-0.3,0.3-0.5,0.7-0.5s0.6,0.2,0.7,0.5C3.9,16.9,4.1,16.5,4.1,15.9 M12.4,29.7H9v4.1h3.5V29.7z M12.4,23.5
		H9v4.1h3.5V23.5z M12.4,17.3H9v4.1h3.5V17.3z M18.7,29.7h-3.5v4.1h3.5C18.7,33.9,18.7,29.7,18.7,29.7z M18.7,23.5h-3.5v4.1h3.5
		C18.7,27.6,18.7,23.5,18.7,23.5z M18.7,17.3h-3.5v4.1h3.5C18.7,21.4,18.7,17.3,18.7,17.3z M24.9,29.7h-3.5v4.1h3.5V29.7z
		 M24.9,23.5h-3.5v4.1h3.5V23.5z M24.9,17.3h-3.5v4.1h3.5V17.3z M31.1,29.7h-3.5v4.1h3.5V29.7z M31.1,23.5h-3.5v4.1h3.5V23.5z
		 M31.1,17.3h-3.5v4.1h3.5V17.3z M36.6,17.1c0.1-0.3,0.3-0.5,0.7-0.5c0.3,0,0.6,0.2,0.7,0.5c0.4-0.2,0.7-0.7,0.7-1.2
		c0-0.8-0.6-1.4-1.4-1.4s-1.4,0.6-1.4,1.4C35.9,16.5,36.2,16.9,36.6,17.1 M38,42.3c-0.1,0.3-0.3,0.5-0.7,0.5c-0.4,0-0.6-0.2-0.7-0.5
		c-0.4,0.2-0.7,0.7-0.7,1.2c0,0.8,0.6,1.4,1.4,1.4s1.4-0.6,1.4-1.4C38.7,43,38.4,42.5,38,42.3 M38,35.4c-0.1,0.3-0.3,0.5-0.7,0.5
		c-0.4,0-0.6-0.2-0.7-0.5c-0.4,0.2-0.7,0.7-0.7,1.2s0.3,1,0.7,1.2c0.1-0.3,0.3-0.5,0.7-0.5c0.3,0,0.6,0.2,0.7,0.5
		c0.4-0.2,0.7-0.7,0.7-1.2S38.4,35.6,38,35.4 M38,28.5c-0.1,0.3-0.3,0.5-0.7,0.5c-0.4,0-0.6-0.2-0.7-0.5c-0.4,0.2-0.7,0.7-0.7,1.2
		c0,0.6,0.3,1,0.7,1.2c0.1-0.3,0.3-0.5,0.7-0.5c0.3,0,0.6,0.2,0.7,0.5c0.4-0.2,0.7-0.7,0.7-1.2C38.7,29.1,38.4,28.7,38,28.5
		 M3.4,21.6c-0.1,0.3-0.3,0.5-0.7,0.5s-0.6-0.2-0.7-0.5c-0.4,0.2-0.7,0.7-0.7,1.2s0.3,1,0.7,1.2c0.1-0.3,0.3-0.5,0.7-0.5
		s0.6,0.2,0.7,0.5c0.4-0.2,0.7-0.7,0.7-1.2S3.9,21.8,3.4,21.6 M38,21.6c-0.1,0.3-0.3,0.5-0.7,0.5c-0.4,0-0.6-0.2-0.7-0.5
		c-0.4,0.2-0.7,0.7-0.7,1.2s0.3,1,0.7,1.2c0.1-0.3,0.3-0.5,0.7-0.5c0.3,0,0.6,0.2,0.7,0.5c0.4-0.2,0.7-0.7,0.7-1.2
		S38.4,21.8,38,21.6"/>
</g>
</svg>
